<svg width="482" height="123" viewBox="0 0 482 123" fill="none" xmlns="http://www.w3.org/2000/svg">
<g clip-path="url(#clip0_2_96)">
<path fill-rule="evenodd" clip-rule="evenodd" d="M480.9 0.326512C455.697 12.9579 464.867 29.413 457.126 32.0845C455.4 40.4146 431.445 37.3869 424.947 58.1299C419.014 77.0621 398.659 47.4332 384.539 69.3338C382.225 72.9254 388.123 109.244 377.603 98.7522C369.232 90.4033 379.47 79.6014 357.315 92.4892C343.017 100.806 328.746 63.8344 328.746 108.316C328.746 118.877 332.979 145.055 311.619 128.824C301.625 121.228 314.399 121.441 298.756 116.033C298.593 115.253 291.692 94.4806 287.519 94.6128C270.181 95.1633 272.306 107.031 260.576 86.728C259.198 84.3452 249.542 82.6857 248.535 85.7026C240.221 88.2337 244.183 101.685 229.931 88.9083C220.639 80.5809 223.895 97.3032 205.064 89.5613C202.022 88.312 199.05 129.374 184.944 107.495C178.419 97.376 200.742 88.5845 175.615 75.802C163.528 69.6549 137.005 85.3572 137.005 69.1665C137.005 51.0033 105.891 59.3685 104.939 35.2363C103.905 9.10995 97.5419 26.2451 83.4603 0.00269844H481L480.908 0.32921L480.9 0.326512ZM52.9559 0C52.512 0.801438 52.1764 1.68923 51.9789 2.66606C50.3225 10.7776 38.1597 15.1653 34.3111 0H52.9559ZM-21.0006 0C-23.0954 0.812231 -24.8464 1.63526 -26.1239 2.44209C-33.6722 7.21294 -41.0283 5.13784 -44 0H-21.0033H-21.0006ZM360.322 105.703C356.495 97.5029 330.824 98.3448 336.356 113.208C337.55 116.414 340.76 122.696 344.07 123.378C344.514 125.51 356.227 133.435 362.449 133.435C374.344 133.435 376.647 126.727 374.91 116.117C373.873 109.778 360.525 107.706 359.518 105.649L360.322 105.706V105.703Z" fill="white"/>
</g>
<defs>
<clipPath id="clip0_2_96">
<rect width="482" height="123" fill="white"/>
</clipPath>
</defs>
</svg>
