<svg width="33" height="28" viewBox="0 0 33 28" fill="none" xmlns="http://www.w3.org/2000/svg">
<path d="M9.10864 0C11.359 0 13.3951 0.853183 15.0025 2.13296C15.4311 2.4529 15.7526 2.77284 16.0741 3.19943C16.3956 2.77284 16.717 2.4529 17.1457 2.13296C18.7531 0.853183 20.7891 0 23.0395 0C25.5042 0 27.8617 1.06648 29.4691 2.6662C31.0765 4.26591 32.1481 6.61216 32.1481 9.06506V9.5983C31.9338 12.7977 30.4336 16.1038 27.7546 19.1966C25.1827 22.2894 21.5393 25.1689 17.1457 27.7284C16.3956 28.155 15.5383 28.0484 14.8953 27.6218C10.6089 25.1689 7.07259 22.2894 4.50074 19.1966C1.82173 16.1038 0.214321 12.6911 0 9.5983V9.06506C0 6.61216 0.964444 4.26591 2.67901 2.6662C4.28642 1.06648 6.64395 0 9.10864 0ZM12.3235 5.33239C11.4662 4.58586 10.3946 4.15926 9.10864 4.15926C7.71556 4.15926 6.53679 4.6925 5.57235 5.54569C4.71506 6.39887 4.0721 7.67864 4.0721 9.06506C4.0721 9.06506 4.0721 9.27836 4.0721 9.38501C4.17926 11.6246 5.46519 14.0775 7.50123 16.5304C9.64444 18.9833 12.5378 21.3296 15.9669 23.4625C19.396 21.3296 22.2894 18.9833 24.4326 16.5304C26.5758 14.0775 27.7546 11.6246 27.8617 9.38501V9.06506C27.8617 7.67864 27.3259 6.50552 26.4686 5.54569C25.6114 4.6925 24.3254 4.05262 22.9323 4.05262C21.7536 4.05262 20.5748 4.47921 19.7175 5.22574C18.8602 5.97228 18.2173 6.93211 18.003 8.10523C17.8958 8.95842 17.1457 9.70495 16.2884 9.8116C15.1096 10.0249 14.038 9.27836 13.9309 8.10523C13.7165 6.93211 13.0736 5.86563 12.2163 5.22574L12.3235 5.33239Z" fill="#CCA56E"/>
</svg>
