<svg width="28" height="28" viewBox="0 0 28 28" fill="none" xmlns="http://www.w3.org/2000/svg">
<path d="M0 25.9259C0 22.5556 1.42593 19.4444 3.62963 17.1111C4.66667 16.0741 5.83333 15.2963 7.12963 14.6481C5.7037 13.0926 4.92593 11.0185 4.92593 8.81481C4.92593 6.35185 5.96296 4.14815 7.51852 2.59259C9.07407 1.03704 11.2778 0 13.7407 0C16.2037 0 18.4074 1.03704 19.963 2.59259C21.5185 4.14815 22.5556 6.35185 22.5556 8.81481C22.5556 11.0185 21.6481 13.0926 20.3519 14.6481C21.6481 15.2963 22.8148 16.0741 23.7222 17.1111C25.9259 19.3148 27.3519 22.4259 27.3519 25.9259C27.3519 27.0926 26.4444 28 25.2778 28H2.2037C1.03704 28 0.12963 27.0926 0.12963 25.9259H0ZM6.61111 20.0926C5.57407 21.1296 4.7963 22.4259 4.40741 23.8519H22.8148C22.4259 22.4259 21.6481 21.1296 20.6111 20.0926C19.0556 18.537 16.9815 17.6296 14.7778 17.6296H12.4444C10.1111 17.6296 8.03704 18.537 6.61111 20.0926ZM10.3704 12.1852C11.1481 12.963 12.3148 13.4815 13.6111 13.4815C14.9074 13.4815 16.0741 12.963 16.8519 12.1852C17.6296 11.4074 18.1481 10.2407 18.1481 8.94444C18.1481 7.64815 17.6296 6.48148 16.8519 5.7037C16.0741 4.92593 14.9074 4.40741 13.6111 4.40741C12.3148 4.40741 11.1481 4.92593 10.3704 5.7037C9.59259 6.48148 9.07407 7.64815 9.07407 8.94444C9.07407 10.2407 9.59259 11.2778 10.3704 12.1852Z" fill="#CCA56E"/>
</svg>
