<svg width="525" height="77" viewBox="0 0 525 77" fill="none" xmlns="http://www.w3.org/2000/svg">
<path d="M8.11132 74.7975C6.47825 76.4187 3.84187 76.4187 2.20881 74.7975C0.575743 73.1762 0.575743 70.5589 2.20881 68.9377L70.4239 1.21594C72.057 -0.405313 74.6934 -0.405313 76.3264 1.21594C77.9595 2.83719 77.9595 5.45451 76.3264 7.07576L8.11132 74.7975ZM517.873 41.6095L517.947 41.5353L518.022 41.4611L518.097 41.387L518.182 41.3234L518.268 41.2598L518.353 41.1962L518.438 41.1327L518.524 41.0691L518.609 41.0161L518.695 40.9631L518.78 40.9101L518.865 40.8572L518.951 40.8148L519.047 40.7724L519.143 40.73L519.239 40.6876L519.335 40.6558L519.431 40.624L519.527 40.5922L519.623 40.5605L519.719 40.5287L519.815 40.5075L519.911 40.4863L520.007 40.4651L520.103 40.4439L520.2 40.4333L520.296 40.4227L520.392 40.4121L520.488 40.4015L520.584 40.3909H520.68H520.776H520.872H520.968L521.064 40.4015L521.16 40.4121L521.256 40.4227L521.352 40.4333L521.448 40.4439L521.544 40.4651L521.64 40.4863L521.737 40.5075L521.833 40.5287L521.929 40.5605L522.025 40.5922L522.121 40.624L522.217 40.6558L522.313 40.6876L522.409 40.73L522.505 40.7724L522.601 40.8148L522.686 40.8572L522.772 40.9101L522.857 40.9631L522.943 41.0161L523.028 41.0691L523.113 41.1327L523.199 41.1962L523.284 41.2598L523.37 41.3234L523.455 41.387L523.53 41.4611L523.604 41.5353L523.679 41.6095L523.754 41.6837L523.829 41.7579L523.903 41.832L523.967 41.9168L524.031 42.0016L524.095 42.0863L524.159 42.1711L524.213 42.2559L524.266 42.3407L524.32 42.4254L524.373 42.5102L524.416 42.6056L524.458 42.7009L524.501 42.7963L524.544 42.8917L524.586 42.987L524.618 43.0824L524.65 43.1778L524.682 43.2731L524.714 43.3685L524.736 43.4639L524.757 43.5592L524.779 43.6546L524.8 43.75L524.821 43.8453L524.832 43.9407L524.843 44.0361L524.853 44.1314L524.864 44.2268V44.3222V44.4176V44.5129V44.6083V44.7037V44.799L524.853 44.8944L524.843 44.9898L524.832 45.0851L524.821 45.1805L524.8 45.2759L524.779 45.3712L524.757 45.4666L524.736 45.562L524.714 45.6573L524.682 45.7527L524.65 45.8481L524.618 45.9434L524.586 46.0388L524.544 46.1342L524.501 46.2295L524.458 46.3249L524.416 46.4203L524.373 46.5156L524.32 46.6004L524.266 46.6852L524.213 46.77L524.159 46.8547L524.095 46.9395L524.031 47.0243L523.967 47.109L523.903 47.1938L523.829 47.268L523.754 47.3422L523.679 47.4163L496.141 74.7551L496.066 74.8293L495.992 74.9035L495.917 74.9776L495.832 75.0412L495.746 75.1048L495.661 75.1684L495.575 75.2319L495.49 75.2955L495.405 75.3485L495.319 75.4015L495.234 75.4545L495.149 75.5075L495.063 75.5498L494.967 75.5922L494.871 75.6346L494.775 75.677L494.679 75.7088L494.583 75.7406L494.487 75.7724L494.391 75.8042L494.295 75.8359L494.199 75.8571L494.103 75.8783L494.006 75.8995L493.91 75.9207L493.814 75.9313L493.718 75.9419L493.622 75.9525L493.526 75.9631L493.43 75.9737H493.334H493.238H493.142H493.046L492.95 75.9631L492.854 75.9525L492.758 75.9419L492.662 75.9313L492.565 75.9207L492.469 75.8995L492.373 75.8783L492.277 75.8571L492.181 75.8359L492.085 75.8042L491.989 75.7724L491.893 75.7406L491.797 75.7088L491.701 75.677L491.605 75.6346L491.509 75.5922L491.413 75.5498L491.327 75.5075L491.242 75.4545L491.157 75.4015L491.071 75.3485L490.986 75.2955L490.9 75.2319L490.815 75.1684L490.73 75.1048L490.644 75.0412L490.559 74.9776L490.484 74.9035L490.409 74.8293L490.335 74.7551L490.26 74.6809L490.185 74.6068L490.111 74.5326L490.047 74.4478L489.983 74.363L489.918 74.2783L489.854 74.1935L489.801 74.1087L489.748 74.024L489.694 73.9392L489.641 73.8544L489.598 73.759L489.556 73.6637L489.513 73.5683L489.47 73.4729L489.427 73.3776L489.395 73.2822L489.363 73.1868L489.331 73.0915L489.299 72.9961L489.278 72.9007L489.257 72.8054L489.235 72.71L489.214 72.6146L489.193 72.5193L489.182 72.4239L489.171 72.3285L489.161 72.2332L489.15 72.1378V72.0424V71.9471V71.8517V71.7563V71.661V71.5656L489.161 71.4702L489.171 71.3748L489.182 71.2795L489.193 71.1841L489.214 71.0887L489.235 70.9934L489.257 70.898L489.278 70.8026L489.299 70.7073L489.331 70.6119L489.363 70.5165L489.395 70.4212L489.427 70.3258L489.47 70.2304L489.513 70.1351L489.556 70.0397L489.598 69.9443L489.641 69.849L489.694 69.7642L489.748 69.6794L489.801 69.5947L489.854 69.5099L489.918 69.4251L489.983 69.3403L490.047 69.2556L490.111 69.1708L490.185 69.0966L490.26 69.0224L490.335 68.9483L517.873 41.6095ZM455.56 74.7975C453.927 76.4187 451.291 76.4187 449.658 74.7975C448.025 73.1762 448.025 70.5589 449.658 68.9377L517.873 1.21594C519.506 -0.405313 522.142 -0.405313 523.775 1.21594C525.408 2.83719 525.408 5.45451 523.775 7.07576L455.56 74.7975ZM414.883 74.7975C413.25 76.4187 410.613 76.4187 408.98 74.7975C407.347 73.1762 407.347 70.5589 408.98 68.9377L477.195 1.21594C478.829 -0.405313 481.465 -0.405313 483.098 1.21594C484.731 2.83719 484.731 5.45451 483.098 7.07576L414.883 74.7975ZM374.206 74.7975C372.573 76.4187 369.936 76.4187 368.303 74.7975C366.67 73.1762 366.67 70.5589 368.303 68.9377L436.518 1.21594C438.151 -0.405313 440.788 -0.405313 442.421 1.21594C444.054 2.83719 444.054 5.45451 442.421 7.07576L374.206 74.7975ZM333.529 74.7975C331.896 76.4187 329.259 76.4187 327.626 74.7975C325.993 73.1762 325.993 70.5589 327.626 68.9377L395.841 1.21594C397.474 -0.405313 400.111 -0.405313 401.744 1.21594C403.377 2.83719 403.377 5.45451 401.744 7.07576L333.529 74.7975ZM292.851 74.7975C291.218 76.4187 288.582 76.4187 286.949 74.7975C285.316 73.1762 285.316 70.5589 286.949 68.9377L355.164 1.21594C356.797 -0.405313 359.433 -0.405313 361.067 1.21594C362.7 2.83719 362.7 5.45451 361.067 7.07576L292.851 74.7975ZM252.174 74.7975C250.541 76.4187 247.905 76.4187 246.272 74.7975C244.639 73.1762 244.639 70.5589 246.272 68.9377L314.487 1.21594C316.12 -0.405313 318.756 -0.405313 320.389 1.21594C322.022 2.83719 322.022 5.45451 320.389 7.07576L252.174 74.7975ZM211.497 74.7975C209.864 76.4187 207.228 76.4187 205.595 74.7975C203.962 73.1762 203.962 70.5589 205.595 68.9377L273.81 1.21594C275.443 -0.405313 278.079 -0.405313 279.712 1.21594C281.345 2.83719 281.345 5.45451 279.712 7.07576L211.497 74.7975ZM170.82 74.7975C169.187 76.4187 166.551 76.4187 164.917 74.7975C163.284 73.1762 163.284 70.5589 164.917 68.9377L233.133 1.21594C234.766 -0.405313 237.402 -0.405313 239.035 1.21594C240.668 2.83719 240.668 5.45451 239.035 7.07576L170.82 74.7975ZM130.143 74.7975C128.51 76.4187 125.873 76.4187 124.24 74.7975C122.607 73.1762 122.607 70.5589 124.24 68.9377L192.455 1.21594C194.088 -0.405313 196.725 -0.405313 198.358 1.21594C199.991 2.83719 199.991 5.45451 198.358 7.07576L130.143 74.7975ZM89.4656 74.7975C87.8326 76.4187 85.1962 76.4187 83.5631 74.7975C81.9301 73.1762 81.9301 70.5589 83.5631 68.9377L151.778 1.21594C153.411 -0.405313 156.048 -0.405313 157.681 1.21594C159.314 2.83719 159.314 5.45451 157.681 7.07576L89.4656 74.7975ZM48.7885 74.7975C47.1554 76.4187 44.519 76.4187 42.886 74.7975C41.2529 73.1762 41.2529 70.5589 42.886 68.9377L111.101 1.21594C112.734 -0.405313 115.371 -0.405313 117.004 1.21594C118.637 2.83719 118.637 5.45451 117.004 7.07576L48.7885 74.7975ZM8.11132 34.4145C6.47825 36.0358 3.84187 36.0358 2.20881 34.4145C0.575743 32.7933 0.575743 30.176 2.20881 28.5547L29.7467 1.21594C31.3798 -0.405313 34.0162 -0.405313 35.6493 1.21594C37.2823 2.83719 37.2823 5.45451 35.6493 7.07576L8.11132 34.4145Z" fill="white"/>
</svg>
