<svg width="189" height="137" viewBox="0 0 189 137" fill="none" xmlns="http://www.w3.org/2000/svg">
<g id="Logo" filter="url(#filter0_d_2_7)">
<path fill-rule="evenodd" clip-rule="evenodd" d="M21.9025 98.4404L19.4453 100.768C17.7779 99.0112 15.8912 98.1331 13.785 98.1331C12.0298 98.1331 10.5379 98.7478 9.30933 99.9333C8.08073 101.119 7.5103 102.612 7.5103 104.368C7.5103 105.597 7.77358 106.695 8.30012 107.617C8.82667 108.583 9.57261 109.329 10.5818 109.856C11.5472 110.383 12.6441 110.691 13.8288 110.691C14.8381 110.691 15.7595 110.515 16.6371 110.12C17.4708 109.725 18.3922 109.066 19.4015 108.056L21.7709 110.559C20.4107 111.876 19.1382 112.798 17.9096 113.325C16.681 113.852 15.3207 114.115 13.7411 114.115C10.889 114.115 8.51952 113.193 6.72048 111.393C4.87758 109.593 4 107.266 4 104.412C4 102.568 4.39491 100.943 5.22861 99.4942C6.0623 98.0453 7.24703 96.9037 8.78279 96.0694C10.3185 95.1913 11.9859 94.7522 13.785 94.7522C15.3207 94.7522 16.7687 95.0596 18.1728 95.7182C19.577 96.3768 20.8056 97.2549 21.8148 98.4404H21.9025ZM57.1811 128.78V120.658H63.0608V121.624H58.2781V124.126H62.7537V125.092H58.2781V127.858H63.2802V128.824H57.225L57.1811 128.78ZM65.9568 126.19L66.9661 126.102C67.0099 126.497 67.1416 126.849 67.3171 127.112C67.4926 127.375 67.7559 127.595 68.1508 127.727C68.5018 127.902 68.9406 127.99 69.3794 127.99C69.7743 127.99 70.1692 127.946 70.4764 127.815C70.7835 127.683 71.0029 127.507 71.1784 127.332C71.3539 127.112 71.3978 126.892 71.3978 126.629C71.3978 126.366 71.3101 126.146 71.1784 125.97C71.0468 125.795 70.7835 125.619 70.4325 125.487C70.2131 125.4 69.7304 125.268 68.9845 125.092C68.2385 124.917 67.712 124.741 67.4049 124.565C67.0099 124.346 66.7467 124.126 66.5273 123.819C66.3518 123.512 66.2201 123.16 66.2201 122.809C66.2201 122.414 66.3518 122.019 66.5712 121.667C66.7905 121.316 67.1416 121.053 67.5804 120.833C68.0191 120.658 68.5457 120.57 69.0722 120.57C69.6865 120.57 70.2131 120.658 70.6519 120.877C71.0907 121.053 71.4856 121.36 71.705 121.755C71.9682 122.15 72.0999 122.546 72.0999 123.029L71.0468 123.116C71.0029 122.59 70.7835 122.194 70.4764 121.975C70.1692 121.711 69.6865 121.58 69.0722 121.58C68.4141 121.58 67.9314 121.711 67.6681 121.931C67.361 122.15 67.2293 122.458 67.2293 122.809C67.2293 123.116 67.3171 123.336 67.5365 123.512C67.7559 123.687 68.2824 123.907 69.16 124.082C70.0376 124.302 70.6519 124.434 70.959 124.609C71.4417 124.829 71.7927 125.092 72.0121 125.444C72.2315 125.795 72.3632 126.146 72.3632 126.585C72.3632 127.024 72.2315 127.419 72.0121 127.815C71.7488 128.21 71.3978 128.473 70.959 128.693C70.4764 128.912 69.9937 129 69.3794 129C68.6335 129 68.0192 128.912 67.5365 128.693C67.0538 128.473 66.6589 128.166 66.3518 127.727C66.0885 127.288 65.913 126.805 65.913 126.278L65.9568 126.19ZM77.5408 128.78V121.58H74.8642V120.614H81.3144V121.58H78.6378V128.78H77.5408ZM83.991 128.78V120.658H86.7993C87.4136 120.658 87.8962 120.702 88.2473 120.789C88.7299 120.877 89.1248 121.097 89.432 121.36C89.8708 121.711 90.1779 122.194 90.3973 122.765C90.6167 123.336 90.7045 123.995 90.7045 124.697C90.7045 125.312 90.6167 125.883 90.4851 126.322C90.3535 126.805 90.1341 127.2 89.9147 127.507C89.6953 127.815 89.432 128.078 89.1687 128.254C88.9055 128.429 88.5983 128.561 88.2034 128.649C87.8085 128.737 87.3697 128.78 86.887 128.78H83.9472H83.991ZM85.088 127.815H86.8432C87.3697 127.815 87.8085 127.771 88.1156 127.683C88.4228 127.595 88.6422 127.463 88.8616 127.244C89.1248 126.98 89.3004 126.629 89.4759 126.234C89.6075 125.795 89.6953 125.268 89.6953 124.653C89.6953 123.819 89.5636 123.16 89.2565 122.677C88.9932 122.238 88.6422 121.931 88.2473 121.755C87.9401 121.624 87.5013 121.58 86.8432 121.58H85.1319V127.815H85.088ZM93.9515 128.78V127.639H95.0924V128.78H93.9515ZM108.08 127.815V128.78H102.683C102.683 128.561 102.727 128.297 102.815 128.078C102.947 127.727 103.166 127.332 103.473 126.98C103.78 126.629 104.219 126.234 104.79 125.751C105.667 125.004 106.281 124.434 106.589 124.038C106.896 123.599 107.071 123.204 107.071 122.853C107.071 122.458 106.94 122.107 106.632 121.843C106.369 121.58 105.974 121.448 105.536 121.448C105.053 121.448 104.658 121.58 104.395 121.887C104.088 122.194 103.956 122.59 103.956 123.073L102.947 122.985C103.034 122.238 103.298 121.624 103.736 121.228C104.175 120.833 104.79 120.614 105.579 120.614C106.369 120.614 106.984 120.833 107.422 121.272C107.861 121.711 108.124 122.238 108.124 122.897C108.124 123.204 108.08 123.555 107.905 123.863C107.773 124.17 107.554 124.521 107.247 124.873C106.94 125.224 106.413 125.707 105.711 126.322C105.097 126.805 104.746 127.156 104.57 127.332C104.395 127.507 104.263 127.683 104.131 127.858H108.124L108.08 127.815ZM110.757 124.741C110.757 123.775 110.845 122.985 111.064 122.414C111.284 121.843 111.547 121.36 111.942 121.053C112.337 120.745 112.819 120.57 113.39 120.57C113.829 120.57 114.224 120.658 114.531 120.833C114.882 121.009 115.145 121.272 115.364 121.58C115.584 121.887 115.759 122.326 115.847 122.809C115.979 123.292 116.023 123.907 116.023 124.741C116.023 125.707 115.935 126.453 115.715 127.068C115.54 127.639 115.233 128.122 114.838 128.429C114.443 128.737 113.96 128.912 113.346 128.912C112.556 128.912 111.942 128.649 111.503 128.078C110.976 127.375 110.713 126.278 110.713 124.785L110.757 124.741ZM111.766 124.741C111.766 126.058 111.942 126.98 112.249 127.419C112.556 127.858 112.951 128.078 113.39 128.078C113.829 128.078 114.224 127.858 114.531 127.419C114.838 126.98 115.013 126.102 115.013 124.741C115.013 123.424 114.838 122.502 114.531 122.063C114.224 121.624 113.829 121.404 113.346 121.404C112.907 121.404 112.512 121.58 112.249 121.975C111.898 122.458 111.722 123.38 111.722 124.741H111.766ZM123.877 127.815V128.78H118.48C118.48 128.561 118.524 128.297 118.611 128.078C118.743 127.727 118.962 127.332 119.27 126.98C119.577 126.629 120.016 126.234 120.586 125.751C121.464 125.004 122.078 124.434 122.385 124.038C122.692 123.599 122.868 123.204 122.868 122.853C122.868 122.458 122.736 122.107 122.429 121.843C122.166 121.58 121.771 121.448 121.332 121.448C120.849 121.448 120.454 121.58 120.191 121.887C119.884 122.194 119.752 122.59 119.752 123.073L118.743 122.985C118.831 122.238 119.094 121.624 119.533 121.228C119.972 120.833 120.586 120.614 121.376 120.614C122.166 120.614 122.78 120.833 123.219 121.272C123.657 121.711 123.921 122.238 123.921 122.897C123.921 123.204 123.833 123.555 123.701 123.863C123.57 124.17 123.35 124.521 123.043 124.873C122.736 125.224 122.209 125.707 121.507 126.322C120.893 126.805 120.542 127.156 120.367 127.332C120.191 127.507 120.059 127.683 119.928 127.858H123.921L123.877 127.815ZM126.553 126.629L127.563 126.497C127.694 127.068 127.87 127.463 128.133 127.727C128.396 127.99 128.747 128.122 129.142 128.122C129.625 128.122 130.02 127.946 130.327 127.639C130.634 127.332 130.81 126.892 130.81 126.409C130.81 125.97 130.678 125.575 130.371 125.268C130.064 124.961 129.713 124.829 129.23 124.829C129.055 124.829 128.791 124.873 128.528 124.961L128.66 124.082C128.704 124.082 128.791 124.082 128.835 124.082C129.274 124.082 129.625 123.951 129.976 123.731C130.327 123.512 130.503 123.16 130.503 122.721C130.503 122.37 130.371 122.063 130.152 121.799C129.888 121.58 129.581 121.448 129.186 121.448C128.791 121.448 128.484 121.58 128.221 121.799C127.958 122.063 127.782 122.414 127.738 122.897L126.729 122.721C126.861 122.063 127.124 121.536 127.563 121.141C128.001 120.789 128.528 120.57 129.186 120.57C129.625 120.57 130.02 120.658 130.415 120.877C130.81 121.053 131.073 121.316 131.292 121.667C131.512 122.019 131.6 122.326 131.6 122.721C131.6 123.073 131.512 123.38 131.336 123.687C131.161 123.995 130.854 124.214 130.503 124.39C130.985 124.521 131.336 124.741 131.643 125.092C131.907 125.444 132.038 125.883 132.038 126.409C132.038 127.112 131.775 127.727 131.248 128.21C130.722 128.693 130.064 128.956 129.274 128.956C128.572 128.956 127.958 128.737 127.519 128.297C127.036 127.858 126.773 127.332 126.729 126.629H126.553ZM72.1438 17.563L67.9314 13.6991L68.6773 12.8649L72.5826 14.5773C72.9336 14.7529 73.1969 14.8407 73.3724 14.9285C73.2846 14.7529 73.1091 14.4455 72.8897 14.0943L70.8713 10.4061L71.5733 9.65963L75.7857 13.5235L75.303 14.0504L71.7927 10.8451L74.2061 15.2798L73.7673 15.7628L69.0722 13.6991L72.6703 16.9922L72.1876 17.5191L72.1438 17.563ZM76.3122 13.1722L74.6887 7.28863L75.3469 6.80565L80.6124 10.0109L79.9103 10.5378L78.3745 9.52791L76.4439 10.9329L76.9704 12.6892L76.3122 13.1722ZM76.2245 10.3182L77.8041 9.17665L76.4 8.2546C75.9612 7.99115 75.6102 7.72771 75.3469 7.55208C75.5224 7.90334 75.6541 8.2546 75.7418 8.60585L76.2245 10.3182ZM81.1389 9.74745L78.5062 4.69809L80.2613 3.77604C80.6562 3.5565 80.9634 3.42478 81.1828 3.38087C81.4899 3.29306 81.7971 3.29306 82.1042 3.33696C82.4992 3.42478 82.8502 3.60041 83.1573 3.90776C83.4645 4.17121 83.7278 4.56637 83.991 5.00545C84.2104 5.40061 84.3421 5.75187 84.3859 6.10313C84.4298 6.45439 84.4737 6.76174 84.4298 7.02519C84.3859 7.28863 84.2982 7.50817 84.2104 7.72771C84.1227 7.94724 83.9472 8.12287 83.7278 8.2985C83.5084 8.47413 83.2451 8.64976 82.9379 8.82539L81.095 9.79136L81.1389 9.74745ZM81.4899 8.82539L82.5869 8.2546C82.9379 8.07897 83.1573 7.90334 83.3328 7.77161C83.5084 7.59598 83.5961 7.46426 83.64 7.28863C83.7278 7.0691 83.7278 6.76174 83.6839 6.45439C83.64 6.14704 83.5084 5.79578 83.3328 5.40061C83.0696 4.87372 82.7624 4.52246 82.4553 4.30293C82.1481 4.1273 81.841 4.03948 81.5338 4.03948C81.3144 4.08339 81.0073 4.17121 80.6124 4.39074L79.5593 4.96154L81.5777 8.82539H81.4899ZM86.3605 7.28863L84.9125 1.7563L88.9055 0.702519L89.081 1.36113L85.8339 2.23928L86.2727 3.95167L89.3004 3.16133L89.4759 3.81995L86.4482 4.61028L86.9309 6.4983L90.3096 5.62015L90.4851 6.27876L86.3605 7.37645V7.28863ZM93.5566 2.9418C93.6005 1.97583 93.8638 1.27332 94.3903 0.746426C94.9169 0.219537 95.575 0 96.3649 0C96.8914 0 97.3741 0.17563 97.769 0.439074C98.1639 0.702519 98.5149 1.05378 98.6904 1.53676C98.9098 1.97583 98.9976 2.50272 98.9976 3.07352C98.9976 3.64432 98.8659 4.17121 98.6027 4.61028C98.3394 5.04935 98.0322 5.40061 97.5935 5.62015C97.1547 5.83969 96.672 5.9275 96.1893 5.9275C95.6628 5.9275 95.1801 5.75187 94.7413 5.48843C94.3464 5.22498 93.9954 4.87372 93.8199 4.39074C93.6005 3.95167 93.5127 3.46869 93.5566 2.9418ZM94.3464 2.9857C94.3464 3.68822 94.4781 4.21511 94.873 4.61028C95.224 5.00545 95.7067 5.22498 96.2332 5.22498C96.8036 5.22498 97.2863 5.04935 97.6373 4.65419C98.0322 4.25902 98.2078 3.68822 98.2516 2.9857C98.2516 2.50272 98.2078 2.10756 98.0322 1.7563C97.9006 1.40504 97.6812 1.14159 97.3741 0.922056C97.0669 0.702519 96.7598 0.614704 96.3649 0.614704C95.8383 0.614704 95.3556 0.790334 94.9607 1.14159C94.5658 1.49285 94.3464 2.10756 94.3464 2.9418V2.9857ZM99.919 6.10313L101.06 0.526889L104.833 1.31722L104.702 1.97583L101.674 1.36113L101.323 3.11743L103.956 3.64432L103.824 4.30293L101.192 3.77604L100.665 6.32267L99.919 6.19095V6.10313ZM107.993 8.64976L109.09 6.4983L108.651 2.54663L109.441 2.9857L109.66 5.04935C109.704 5.44452 109.704 5.79578 109.748 6.19095C110.055 6.01532 110.362 5.79578 110.757 5.57624L112.512 4.61028L113.302 5.00545L109.748 6.89347L108.651 9.04493L107.993 8.69367V8.64976ZM112.732 8.03506C113.302 7.28863 113.916 6.80565 114.662 6.71784C115.408 6.58611 116.066 6.76174 116.725 7.24472C117.163 7.55208 117.471 7.94724 117.646 8.38632C117.822 8.82539 117.909 9.30837 117.822 9.79136C117.734 10.2743 117.514 10.7573 117.163 11.2403C116.812 11.7233 116.417 12.0745 115.979 12.2941C115.54 12.5136 115.057 12.6014 114.575 12.5575C114.092 12.5136 113.653 12.2941 113.258 12.0306C112.819 11.7233 112.512 11.3281 112.337 10.8451C112.161 10.4061 112.117 9.92308 112.205 9.4401C112.293 8.95712 112.468 8.51804 112.776 8.12287L112.732 8.03506ZM113.346 8.51804C112.951 9.08884 112.776 9.61573 112.819 10.1426C112.863 10.6695 113.127 11.1086 113.609 11.4598C114.048 11.8111 114.575 11.8989 115.101 11.8111C115.628 11.7233 116.11 11.372 116.549 10.7573C116.812 10.3622 116.988 10.0109 117.076 9.65963C117.163 9.30837 117.12 8.95711 116.988 8.60585C116.856 8.2546 116.637 7.99115 116.33 7.77161C115.891 7.46426 115.408 7.33254 114.882 7.42035C114.355 7.50817 113.829 7.85943 113.346 8.56195V8.51804ZM122.868 13.1722L123.394 13.743L120.981 15.9823C120.542 16.3775 120.191 16.6409 119.84 16.7726C119.489 16.9044 119.138 16.9044 118.743 16.8165C118.348 16.7287 117.997 16.4653 117.602 16.0262C117.251 15.631 117.032 15.2359 116.944 14.8846C116.856 14.4895 116.9 14.1382 117.032 13.7869C117.207 13.4357 117.514 13.0844 117.953 12.6453L120.367 10.4061L120.893 10.9769L118.48 13.2161C118.129 13.5674 117.865 13.8308 117.778 14.0504C117.646 14.2699 117.646 14.5334 117.69 14.7529C117.734 15.0163 117.865 15.2359 118.085 15.4993C118.436 15.8945 118.831 16.114 119.138 16.114C119.489 16.114 119.928 15.8945 120.454 15.4115L122.868 13.1722ZM157.532 21.7781C151.389 21.339 145.597 21.4268 140.288 21.9537C134.627 22.4806 129.493 23.4905 125.193 24.8516L123.219 25.4663L123.745 27.4421C126.115 36.0919 126.422 44.2148 124.711 51.5473C122.999 58.8799 119.313 65.5099 113.697 71.2178L110.406 74.5987L115.101 74.8622C120.147 75.1256 124.842 74.9939 129.142 74.3792C138.445 73.018 145.948 69.5055 151.257 63.7097C156.61 57.9139 159.726 49.8788 160.296 39.5167C160.56 34.7308 160.296 29.4619 159.463 23.6661L159.199 21.9537L157.488 21.822L157.532 21.7781ZM126.378 60.0654L148.273 60.5922L148.142 60.724C143.491 65.7733 136.865 68.8468 128.528 70.0762C125.808 70.4714 122.912 70.691 119.84 70.691C122.517 67.3979 124.711 63.8414 126.334 60.0654H126.378ZM151.389 56.421L127.958 55.8502C128.045 55.6307 128.089 55.4112 128.177 55.1477L136.031 47.5517L154.855 47.6835C154.065 50.9765 152.881 53.8744 151.345 56.421H151.389ZM155.689 43.4244L140.419 43.3366L155.821 28.452C156.216 32.3159 156.303 35.9163 156.128 39.2532C156.04 40.7022 155.908 42.1072 155.733 43.4683L155.689 43.4244ZM135.9 26.7835L136.426 41.2291L129.713 47.7274C130.459 41.6242 130.02 35.1698 128.396 28.3642C130.722 27.7495 133.223 27.1787 135.944 26.7835H135.9ZM140.551 37.2335L140.156 26.2127L140.682 26.1688C144.324 25.8176 148.23 25.6858 152.354 25.7737L140.551 37.1896V37.2335ZM96.9353 11.5477C98.6027 11.6355 100.182 11.8989 101.762 12.2941C106.808 13.6552 111.328 16.597 114.838 20.6804C119.664 26.3005 122.648 33.9843 122.648 42.5024C122.648 51.0204 119.664 58.7042 114.838 64.3244C110.976 68.8029 105.974 71.9204 100.314 73.062C96.7159 59.0994 98.12 50.2301 99.4364 41.6681C100.621 33.8087 101.762 26.5201 98.5149 15.9823L96.9792 11.5477V11.5037L96.9353 11.5477ZM103.473 67.6613C106.545 66.3441 109.353 64.2366 111.635 61.5582C115.803 56.7284 118.392 49.9666 118.392 42.5463C118.392 35.082 115.803 28.3642 111.635 23.5344C109.309 20.856 106.501 18.7046 103.342 17.3873C105.974 27.4421 104.833 34.643 103.649 42.3707C102.552 49.5715 101.367 56.9918 103.473 67.7052V67.6613ZM95.3118 73.5449C93.776 73.5449 92.2402 73.3693 90.7484 73.062C85.2196 71.9204 80.2613 68.8029 76.4439 64.3683C71.6172 58.7481 68.6335 51.0643 68.6335 42.5463C68.6335 34.0283 71.6172 26.3445 76.4439 20.7243C80.5246 15.9823 85.9656 12.7332 92.0209 11.8111C96.8036 24.8955 95.4873 33.2818 94.0832 42.3707C92.9423 49.8788 91.7137 57.7383 94.2148 69.242L95.2679 73.5888L95.3118 73.5449ZM89.2126 16.9044C85.5707 18.1777 82.3236 20.4609 79.6909 23.5344C75.5224 28.3642 72.9336 35.1259 72.9336 42.5463C72.9336 50.0106 75.5224 56.7284 79.6909 61.5582C82.4553 64.7635 85.8778 67.0905 89.6953 68.32C87.5013 57.0357 88.7299 49.2202 89.8708 41.7121C91.0116 34.0722 92.1525 27.0031 89.2126 16.9044ZM33.7498 21.822C39.8928 21.3829 45.6848 21.4707 50.9942 21.9976C56.6545 22.5245 61.7884 23.5344 66.0885 24.8955L68.063 25.5102L67.5365 27.486C65.167 36.1358 64.9038 44.2587 66.5712 51.5912C68.2824 58.9238 71.9682 65.5538 77.5847 71.2617L80.8756 74.6426L76.1806 74.9061C71.1346 75.1695 66.4395 75.0378 62.1394 74.4231C52.8371 73.062 45.3338 69.5494 40.0245 63.7536C34.6713 57.9578 31.5559 49.9227 30.9855 39.5606C30.7222 34.7747 30.9855 29.5058 31.8192 23.71L32.0824 21.9976L33.7937 21.8659L33.7498 21.822ZM64.9038 60.1093L43.0082 60.6362L43.1399 60.7679C47.791 65.8172 54.4167 68.8907 62.7537 70.1202C65.4742 70.5153 68.3702 70.7349 71.4417 70.7349C68.7651 67.4418 66.5712 63.8853 64.9476 60.1093H64.9038ZM39.8928 56.4649L63.3241 55.8941C63.2364 55.6746 63.1925 55.4551 63.1047 55.1916L55.2504 47.5956L36.4264 47.7274C37.2162 51.0204 38.401 53.9183 39.9367 56.4649H39.8928ZM35.5927 43.4683L50.8625 43.3805L35.4611 28.4959C35.0662 32.3598 34.9784 35.9602 35.1539 39.2971C35.2417 40.7461 35.3733 42.1511 35.5488 43.5123L35.5927 43.4683ZM55.3821 26.8274L54.8555 41.273L61.569 47.7713C60.823 41.6681 61.2618 35.2138 62.8853 28.4081C60.5598 27.7934 58.0587 27.2226 55.3382 26.8274H55.3821ZM50.7309 37.2774L51.1258 26.2566L50.5993 26.2127C46.9573 25.8615 43.0521 25.7297 38.9275 25.8176L50.7309 37.2335V37.2774ZM35.4611 94.84C38.0499 94.84 40.2878 95.806 42.1745 97.6501C44.0613 99.5381 44.9828 101.821 44.9828 104.544C44.9828 107.222 44.0613 109.505 42.2184 111.393C40.3755 113.237 38.1377 114.203 35.505 114.203C32.7406 114.203 30.4589 113.237 28.616 111.349C26.7731 109.417 25.8516 107.178 25.8516 104.544C25.8516 102.787 26.2904 101.163 27.1241 99.6699C27.9578 98.177 29.1425 97.0354 30.6344 96.1573C32.1263 95.2791 33.7498 94.84 35.4611 94.84ZM35.4172 98.2648C33.7059 98.2648 32.3018 98.8795 31.1171 100.065C29.9762 101.251 29.3619 102.743 29.3619 104.587C29.3619 106.607 30.1079 108.232 31.5559 109.417C32.6967 110.339 33.9692 110.822 35.4611 110.822C37.1285 110.822 38.5326 110.208 39.6735 109.022C40.8582 107.837 41.4286 106.344 41.4286 104.587C41.4286 102.831 40.8582 101.338 39.6735 100.153C38.4887 98.9234 37.0846 98.3087 35.3733 98.3087L35.4172 98.2648ZM50.1605 95.2791H59.2873V98.66H53.6269V102.041H59.2873V105.422H53.6269V113.72H50.1166V95.2791H50.1605ZM64.2895 95.2791H73.4162V98.66H67.7559V102.041H73.4162V105.422H67.7559V113.72H64.2456V95.2791H64.2895ZM78.3745 95.2791H88.4228V98.7039H81.841V101.997H88.4228V105.378H81.841V110.208H88.4228V113.632H78.3745V95.1913V95.2791ZM93.5127 95.2791H103.561V98.7039H96.9792V101.997H103.561V105.378H96.9792V110.208H103.561V113.632H93.5127V95.1913V95.2791ZM117.558 113.72V95.2791H120.454C122.122 95.2791 123.394 95.3669 124.14 95.5865C125.237 95.8938 126.115 96.4207 126.773 97.211C127.431 98.0014 127.738 98.9234 127.738 100.021C127.738 100.724 127.607 101.338 127.299 101.953C126.992 102.524 126.51 103.051 125.851 103.578C126.948 104.104 127.782 104.763 128.309 105.553C128.835 106.344 129.098 107.266 129.098 108.364C129.098 109.417 128.835 110.339 128.309 111.174C127.782 112.008 127.08 112.666 126.246 113.062C125.413 113.501 124.228 113.676 122.736 113.676H117.558V113.72ZM121.069 98.6161V102.524H121.858C122.736 102.524 123.394 102.348 123.789 101.997C124.228 101.646 124.403 101.163 124.403 100.504C124.403 99.9333 124.184 99.4503 123.789 99.143C123.394 98.7917 122.78 98.6161 121.946 98.6161H121.025H121.069ZM121.069 105.641V110.383H121.946C123.438 110.383 124.403 110.208 124.93 109.812C125.456 109.461 125.72 108.89 125.72 108.188C125.72 107.398 125.413 106.783 124.798 106.3C124.184 105.861 123.175 105.597 121.815 105.597H121.069V105.641ZM134.32 95.2791H144.368V98.7039H137.786V101.997H144.368V105.378H137.786V110.208H144.368V113.632H134.32V95.1913V95.2791ZM155.075 95.2791H158.585L165.693 113.72H162.051L160.603 109.9H153.056L151.564 113.72H147.922L155.075 95.2791ZM156.83 100.197L154.329 106.563H159.331L156.83 100.197ZM170.213 95.2791H173.548L181.49 107.398V95.2791H185V113.72H181.665L173.767 101.646V113.72H170.257V95.2791H170.213Z" fill="#CCA56E"/>
</g>
<defs>
<filter id="filter0_d_2_7" x="0" y="0" width="189" height="137" filterUnits="userSpaceOnUse" color-interpolation-filters="sRGB">
<feFlood flood-opacity="0" result="BackgroundImageFix"/>
<feColorMatrix in="SourceAlpha" type="matrix" values="0 0 0 0 0 0 0 0 0 0 0 0 0 0 0 0 0 0 127 0" result="hardAlpha"/>
<feOffset dy="4"/>
<feGaussianBlur stdDeviation="2"/>
<feComposite in2="hardAlpha" operator="out"/>
<feColorMatrix type="matrix" values="0 0 0 0 0 0 0 0 0 0 0 0 0 0 0 0 0 0 0.25 0"/>
<feBlend mode="normal" in2="BackgroundImageFix" result="effect1_dropShadow_2_7"/>
<feBlend mode="normal" in="SourceGraphic" in2="effect1_dropShadow_2_7" result="shape"/>
</filter>
</defs>
</svg>
